<svg xmlns="http://www.w3.org/2000/svg"  viewBox="0 0 128 128" width="50px" height="50px"><path fill="#fd7" d="M94,78H14v0c0-22.1,17.9-30,40-30h0C76.1,48,94,55.9,94,78L94,78z"/><path fill="#ffa869" d="M70.1,49.7c0.2,0.2,0.3,0.3,0.5,0.5c6,7.6,0.2,18.8-9.5,18.8H39.6c-2.5,0-4.5,2-4.5,4.5v0c0,2.5,2,4.5,4.5,4.5L94,78v0C94,61.6,84.2,53.1,70.1,49.7z"/><path fill="#fd7" d="M84,124H24c-5.5,0-10-4.5-10-10v-8h80v8C94,119.5,89.5,124,84,124z"/><path fill="#ffa869" d="M70.9,106c-0.5,5.1-4.8,9-9.9,9H38.5c-2.5,0-4.5,2-4.5,4.5v0c0,2.5,2,4.5,4.5,4.5H84c5.5,0,10-4.5,10-10v-8H70.9z"/><path fill="#ff697d" d="M94.5,106h-81c-4.1,0-7.5-3.4-7.5-7.5v0c0-4.1,3.4-7.5,7.5-7.5h81c4.1,0,7.5,3.4,7.5,7.5v0C102,102.6,98.6,106,94.5,106z"/><path fill="#a66366" d="M94.5,91h-30c4.1,0,7.5,3.4,7.5,7.5s-3.4,7.5-7.5,7.5h30c4.1,0,7.5-3.4,7.5-7.5S98.6,91,94.5,91z"/><path fill="#fff" d="M14 78L14 88 44 88 44 91 70 105 94 91 94 88 94 86 94 78z"/><path fill="#fd7" d="M79.3,99.6L94,91v-3H76.2c-3.4,0-6.2,2.8-6.2,6.2v0C70,99,75.2,102,79.3,99.6z"/><path fill="#fff" d="M63 57A3 3 0 1 0 63 63 3 3 0 1 0 63 57zM29 66A3 3 0 1 0 29 72 3 3 0 1 0 29 66zM42 56A3 3 0 1 0 42 62 3 3 0 1 0 42 56z"/><path fill="#3f4a54" d="M94 81c-1.7 0-3-1.3-3-3 0-22.3-20.1-27-37-27s-37 4.7-37 27c0 1.7-1.3 3-3 3s-3-1.3-3-3c0-21.3 15.3-33 43-33s43 11.7 43 33C97 79.7 95.7 81 94 81zM104 121h-9.1c1.3-2 2.1-4.4 2.1-7v-5.3c4.6-1.1 8-5.3 8-10.2 0-5.8-4.7-10.5-10.5-10.5-.1 0-.2 0-.2 0-.6-.1-1.3.1-1.9.4l-22.5 14L45.5 88.4C45 88.1 44.5 88 44 88H14c-.1 0-.2 0-.2 0-.1 0-.2 0-.2 0C7.7 88 3 92.7 3 98.5c0 4.9 3.4 9.1 8 10.2v5.3c0 7.2 5.8 13 13 13h60 20c1.7 0 3-1.3 3-3S105.7 121 104 121zM24 121c-3.9 0-7-3.1-7-7v-8c0-1.7-1.3-3-3-3-.1 0-.2 0-.2 0-.1 0-.2 0-.2 0C11 103 9 101 9 98.5s2-4.5 4.5-4.5c.1 0 .2 0 .2 0 .1 0 .2 0 .2 0h29.2l25.3 14.6c.5.3 1 .4 1.5.4.6 0 1.1-.2 1.6-.5L94.8 94c2.3.2 4.2 2.1 4.2 4.5 0 2.5-2 4.5-4.5 4.5-.1 0-.2 0-.2 0-.1 0-.2 0-.2 0-1.7 0-3 1.3-3 3v8c0 3.9-3.1 7-7 7H24zM119 121A3 3 0 1 0 119 127 3 3 0 1 0 119 121z"/></svg>