<svg xmlns="http://www.w3.org/2000/svg"  viewBox="0 0 80 80" width="50px" height="50px"><path fill="#fff" d="M41,35.5c-16,0-29.5-4.8-29.5-10.5S25,14.5,41,14.5S70.5,19.3,70.5,25S57,35.5,41,35.5z"/><path fill="#7a4f34" d="M41,15c17.3,0,29,5.2,29,10S58.3,35,41,35s-29-5.2-29-10S23.6,15,41,15 M41,14c-16.6,0-30,4.9-30,11 s13.4,11,30,11s30-4.9,30-11S57.6,14,41,14z"/><path fill="#e1ebf2" d="M41 20A23.5 8 0 1 0 41 36A23.5 8 0 1 0 41 20Z"/><path fill="#ea4c89" d="M49.2,35.9l-1.9-0.7L57.6,7.4c0.4-1.2,1.4-2,2.6-2.3L72.7,2L73.1,4L60.7,7c-0.6,0.1-1,0.5-1.2,1.1 L49.2,35.9z"/><path fill="#ffeea3" d="M19,37.5c-8.6,0-15.5-6.9-15.5-15.5S10.4,6.5,19,6.5S34.5,13.4,34.5,22C34.5,30.6,27.6,37.5,19,37.5z"/><path fill="#ba9b48" d="M19,7c8.3,0,15,6.7,15,15s-6.7,15-15,15S4,30.3,4,22S10.7,7,19,7 M19,6C10.2,6,3,13.2,3,22 s7.2,16,16,16s16-7.2,16-16S27.8,6,19,6z"/><path fill="#f5ce85" d="M19 10A12 12 0 1 0 19 34A12 12 0 1 0 19 10Z"/><path fill="#ffeea3" d="M18 9.8H20V34.2H18z" transform="rotate(-33.129 19.001 22.001)"/><path fill="#ffeea3" d="M6.8 21H31.2V23H6.8z" transform="rotate(-64.737 18.999 21.999)"/><path fill="#ffeea3" d="M6.8 21H31.2V23H6.8z"/><path fill="#a6714e" d="M41,77.5C23.1,77.6,8.6,63.1,8.5,45.3c0-4.8,2.4-17.4,2.9-19.8h0.1c1,4,13,9.4,29.4,9.4 s28.5-5.4,29.4-9.4h0.2c0.5,2.4,2.9,14.9,2.9,19.8C73.4,63.1,58.9,77.6,41,77.5z"/><path fill="#7a4f34" d="M70.3,26.8c0.8,4,2.7,14.2,2.7,18.4c0,17.7-14.3,32-32,32S9,62.9,9,45.3c0-4.3,1.9-14.5,2.7-18.4 c1.2,1.7,4,3.5,8,5c6.9,2.4,14.1,3.6,21.3,3.5c7.3,0.1,14.5-1.1,21.4-3.5C66.4,30.3,69.1,28.5,70.3,26.8 M71,25h-1 c0,3.3-11.6,9.4-29,9.4S12,28.3,12,25h-1c0,0-3,14.8-3,20.3c0,18.2,14.8,33,33,33s33-14.8,33-33C74,39.8,71,25,71,25z"/></svg>